<svg xmlns="http://www.w3.org/2000/svg" width="400" height="400" version="1.0" viewBox="100 50 312 412">
<defs>
<linearGradient id="a" x1="0%" x2="0%" y1="20%" y2="80%">
<stop offset="0%" style="stop-color:#1D1C21;stop-opacity:1"/>
<stop offset="100%" style="stop-color:#3B0AFF;stop-opacity:1"/>
</linearGradient>
</defs>
<path fill="url(#a)" stroke="#ffffff" stroke-width="60" d="M1566 4362c-8-13-35-174-46-272-6-52-11-169-11-259l-1-165-43-75c-86-150-121-306-112-508 6-156 34-262 107-406l50-99v-468c0-486-3-534-43-618-29-62-107-139-173-169-47-21-66-25-128-21-64 3-81 8-134 41-80 50-115 55-172 25-83-43-113-130-72-208 23-43 128-110 221-142 93-31 239-31 332 0 203 69 351 221 431 443 22 62 23 78 28 446l5 381 65-40c36-22 89-51 118-64l53-24-3-553-3-552-29-53c-16-29-49-68-73-88-54-44-75-83-75-141 0-91 89-165 176-149 70 13 184 127 238 238 57 115 58 132 58 690v513h349l3-530 3-530 29-75c36-94 83-168 147-232 81-81 149-98 224-53 48 28 75 75 75 130 0 50-20 83-80 134-33 28-61 63-76 95l-24 51v1092l60 26c33 15 85 42 115 62 31 19 58 35 60 35 3 0 5-161 5-357 0-408 1-421 77-572 102-205 296-334 523-348 125-8 262 34 368 114 94 71 81 206-27 260-54 27-81 23-179-29-64-33-81-38-141-38-56 0-79 5-129 31-75 37-143 110-174 187-23 56-23 62-26 550-3 481-2 494 18 521 37 53 110 215 132 296 18 68 22 106 22 250 0 157-2 177-28 260-15 50-50 133-78 185l-51 95 2 150c3 234-36 526-71 533-49 9-343-134-454-221l-67-53-67 23c-216 72-502 70-724-7l-60-20-30 28c-52 48-107 87-181 128-137 77-299 142-309 126zm509-941c104-47 144-170 88-273-35-65-90-98-162-98-89 0-150 35-182 105-77 167 91 341 256 266zm1047-5c22-11 50-37 68-64 63-96 28-232-72-281-114-55-244 3-277 123-6 22-8 50-6 63 3 13 7 34 10 48 8 36 63 95 110 117 48 22 112 20 167-6zm-444-329c19-15 14-70-10-103-13-17-38-45-55-63-42-41-44-86-7-130 21-26 33-31 68-31 48 0 82 27 95 76 7 28 10 29 70 32l62 3-7-38c-18-106-105-191-203-201-41-4-62 1-117 27l-67 31-38-26c-26-18-55-27-96-31-50-4-65-1-113 24-68 36-108 90-119 161-10 62-7 65 65 60 46-3 49-4 55-38 23-114 189-102 189 14 0 30-7 44-37 73-21 19-46 47-55 61-21 32-23 85-5 100 8 7 69 13 148 14 138 3 155 2 177-15z" transform="matrix(.1 0 0 -.1 0 512)"/>
</svg>